<svg viewBox="0 0 119 28" fill="none" xmlns="http://www.w3.org/2000/svg">
<path d="M37.2892 7.7241H33.2852V5.0401H44.2852V7.7241H40.3252V20.0001H37.2892V7.7241ZM54.8312 15.7541H48.3632C48.3778 16.4288 48.5538 16.9201 48.8912 17.2281C49.2285 17.5214 49.7272 17.6681 50.3872 17.6681C51.7512 17.6681 52.9685 17.6241 54.0392 17.5361L54.6552 17.4701L54.6992 19.6481C53.0418 20.0588 51.5165 20.2641 50.1232 20.2641C48.4658 20.2641 47.2632 19.8241 46.5152 18.9441C45.7672 18.0641 45.3932 16.6341 45.3932 14.6541C45.3932 10.7088 47.0138 8.7361 50.2552 8.7361C53.4525 8.7361 55.0512 10.3934 55.0512 13.7081L54.8312 15.7541ZM48.3412 13.5101H52.1472C52.1472 12.6301 52.0078 12.0214 51.7292 11.6841C51.4652 11.3321 50.9812 11.1561 50.2772 11.1561C49.5732 11.1561 49.0745 11.3394 48.7812 11.7061C48.5025 12.0581 48.3558 12.6594 48.3412 13.5101ZM60.2392 20.0001H57.2892V4.6001H60.2372L60.2392 20.0001ZM71.9772 15.7541H65.5092C65.5232 16.4288 65.6992 16.9201 66.0372 17.2281C66.3745 17.5214 66.8732 17.6681 67.5332 17.6681C68.8965 17.6681 70.1138 17.6241 71.1852 17.5361L71.8012 17.4701L71.8452 19.6481C70.1872 20.0588 68.6618 20.2641 67.2692 20.2641C65.6112 20.2641 64.4085 19.8241 63.6612 18.9441C62.9132 18.0641 62.5392 16.6341 62.5392 14.6541C62.5392 10.7088 64.1598 8.7361 67.4012 8.7361C70.5985 8.7361 72.1972 10.3934 72.1972 13.7081L71.9772 15.7541ZM65.4872 13.5101H69.2932C69.2932 12.6301 69.1538 12.0214 68.8752 11.6841C68.6112 11.3321 68.1272 11.1561 67.4232 11.1561C66.7192 11.1561 66.2205 11.3394 65.9272 11.7061C65.6472 12.0581 65.5005 12.6594 65.4872 13.5101ZM79.6272 8.7361C80.4052 8.7361 81.0725 8.83876 81.6292 9.0441C82.1872 9.2341 82.6418 9.55676 82.9932 10.0121C83.3598 10.4521 83.6315 11.0461 83.8082 11.7941C83.9835 12.5274 84.0712 13.4368 84.0712 14.5221C84.0712 15.6074 83.9762 16.5168 83.7862 17.2501C83.5962 17.9834 83.2805 18.5774 82.8392 19.0321C82.4138 19.4721 81.8492 19.7874 81.1452 19.9781C80.4558 20.1681 79.6055 20.2634 78.5942 20.2641C78.2715 20.2641 77.8238 20.2421 77.2512 20.1981C76.5463 20.1592 75.8422 20.1079 75.1392 20.0441L74.3042 19.9561V4.6001H77.2512V9.3301C78.2052 8.9341 78.9972 8.7361 79.6272 8.7361ZM78.5942 17.6241C79.0782 17.6241 79.4815 17.5728 79.8042 17.4701C80.1262 17.3534 80.3828 17.1701 80.5742 16.9201C80.7642 16.6561 80.8958 16.3188 80.9692 15.9081C81.0492 15.3914 81.086 14.8689 81.0792 14.3461C81.0792 12.3661 80.4635 11.3761 79.2322 11.3761C78.6155 11.3761 78.0582 11.4494 77.5602 11.5961L77.2512 11.6621V17.5361C77.5892 17.5654 77.8682 17.5874 78.0882 17.6021C78.3082 17.6168 78.4768 17.6241 78.5942 17.6241ZM92.7602 17.2281V9.0001H95.7082V20.0001H92.7822V19.3841C91.7408 19.9708 90.8242 20.2641 90.0322 20.2641C89.2702 20.2641 88.6395 20.1614 88.1402 19.9561C87.6549 19.7617 87.2405 19.4241 86.9522 18.9881C86.6588 18.5481 86.4535 17.9834 86.3362 17.2941C86.2188 16.5901 86.1602 15.7468 86.1602 14.7641V9.0001H89.1082V14.8081C89.1082 15.3508 89.1228 15.8054 89.1522 16.1721C89.1962 16.5241 89.2695 16.8101 89.3722 17.0301C89.4902 17.2501 89.6442 17.4041 89.8342 17.4921C90.0402 17.5801 90.3115 17.6241 90.6482 17.6241C91.2788 17.6241 91.8875 17.5214 92.4742 17.3161L92.7602 17.2281ZM108.396 21.3641C108.396 22.6254 107.912 23.5568 106.944 24.1581C105.991 24.7594 104.685 25.0601 103.028 25.0601C101.386 25.0601 100.117 24.8401 99.2222 24.4001C98.3268 23.9601 97.8795 23.1608 97.8802 22.0021C97.8802 21.0781 98.4082 20.2054 99.4642 19.3841C98.9222 19.0174 98.6508 18.4601 98.6502 17.7121C98.6502 17.4188 98.8702 16.9348 99.3102 16.2601L99.5082 15.9521C98.5108 15.2188 98.0122 14.1554 98.0122 12.7621C98.0122 11.3688 98.4302 10.3568 99.2662 9.7261C100.117 9.09543 101.239 8.7801 102.632 8.7801C103.292 8.7801 103.915 8.85343 104.502 9.0001L104.854 9.0661L108.396 8.9561V11.3101L106.746 11.1781C107.069 11.6768 107.23 12.1754 107.23 12.6741C107.23 13.4074 107.135 14.0234 106.944 14.5221C106.768 15.0061 106.489 15.4021 106.108 15.7101C105.727 16.0034 105.243 16.2161 104.656 16.3481C104.069 16.4801 103.38 16.5461 102.588 16.5461C102.221 16.5461 101.921 16.5168 101.686 16.4581C101.539 16.8101 101.466 17.1181 101.466 17.3821C101.466 17.6314 101.591 17.8001 101.84 17.8881C102.06 17.9614 102.647 18.0128 103.6 18.0421C104.524 18.0421 105.294 18.1008 105.91 18.2181C106.526 18.3354 107.017 18.5261 107.384 18.7901C107.751 19.0401 108.007 19.3774 108.154 19.8021C108.315 20.2121 108.396 20.7328 108.396 21.3641ZM100.96 12.6741C100.96 13.7594 101.525 14.3021 102.654 14.3021C103.769 14.3021 104.326 13.7594 104.326 12.6741C104.326 11.6041 103.769 11.0688 102.654 11.0681C101.525 11.0681 100.96 11.6034 100.96 12.6741ZM100.784 21.6941C100.784 22.3241 101.561 22.6394 103.116 22.6401C104.656 22.6401 105.426 22.2734 105.426 21.5401C105.426 21.1441 105.294 20.8874 105.03 20.7701C104.81 20.6821 104.253 20.6234 103.358 20.5941L101.378 20.4401C100.982 20.8361 100.784 21.2541 100.784 21.6941ZM118.124 9.3081L118.08 11.7501C117.304 11.6494 116.527 11.5614 115.748 11.4861C115.258 11.4341 114.767 11.4047 114.274 11.3981C113.541 11.3981 113.071 11.4641 112.866 11.5961C112.646 11.7281 112.536 11.9334 112.536 12.2121C112.536 12.4914 112.683 12.6894 112.976 12.8061C113.123 12.8648 113.372 12.9381 113.724 13.0261C114.091 13.0994 114.575 13.1874 115.176 13.2901C115.763 13.3928 116.261 13.5321 116.672 13.7081C117.083 13.8694 117.42 14.0821 117.684 14.3461C117.948 14.6101 118.139 14.9328 118.256 15.3141C118.373 15.6954 118.432 16.1574 118.432 16.7001C118.432 19.0761 116.958 20.2641 114.01 20.2641C113.057 20.2641 111.883 20.1321 110.49 19.8681L109.786 19.7361L109.874 17.2721C110.798 17.3888 111.568 17.4768 112.184 17.5361C112.815 17.5948 113.314 17.6241 113.68 17.6241C114.399 17.6241 114.883 17.5508 115.132 17.4041C115.248 17.3498 115.346 17.2623 115.412 17.1527C115.479 17.0431 115.512 16.9162 115.506 16.7881C115.506 16.5094 115.374 16.3041 115.11 16.1721C114.846 16.0548 114.142 15.8934 112.998 15.6881C112.49 15.6151 111.989 15.4973 111.502 15.3361C111.116 15.1963 110.758 14.9875 110.446 14.7201C110.163 14.4496 109.945 14.1187 109.808 13.7521C109.676 13.3561 109.61 12.8648 109.61 12.2781C109.61 11.6914 109.713 11.1781 109.918 10.7381C110.138 10.2981 110.431 9.93143 110.798 9.6381C111.2 9.33569 111.655 9.11177 112.14 8.9781C112.668 8.83143 113.24 8.7581 113.856 8.7581C114.282 8.7581 114.788 8.79476 115.374 8.8681C115.976 8.92676 116.651 9.02943 117.398 9.1761L118.124 9.3081Z" fill="#0164E6"/>
<path d="M14 0C21.732 0 28 6.26801 28 14C28 21.732 21.732 28 14 28C6.26801 28 0 21.732 0 14C0 6.26801 6.26801 0 14 0ZM14.1982 4.32031C14.1063 4.32855 14.0161 4.35062 13.9307 4.38574C13.8877 4.40329 13.8458 4.42419 13.8057 4.44824C13.2989 4.72515 12.8169 5.0577 12.3711 5.43652C12.2248 5.56164 12.1203 5.72938 12.0732 5.91602C12.0262 6.10251 12.0381 6.2991 12.1074 6.47852C12.3574 7.11852 12.6851 7.72513 13.0791 8.28613C13.0345 8.3352 12.9911 8.38519 12.9492 8.43652C12.9073 8.48797 12.8662 8.54014 12.8271 8.59375C12.749 8.70093 12.6766 8.81262 12.6104 8.92773C12.5915 8.96089 12.5775 8.99646 12.5684 9.0332C12.5592 9.06959 12.5548 9.10766 12.5557 9.14551C12.5575 9.22143 12.5805 9.29516 12.6211 9.35938C12.9041 9.81538 13.238 10.2428 13.624 10.6318C13.387 10.7321 13.1662 10.8687 12.9707 11.0361L12.6543 10.7578C12.4467 10.5694 12.2454 10.3743 12.0508 10.1729C11.8559 9.97107 11.6676 9.76298 11.4863 9.54883C11.3958 9.44184 11.3067 9.33357 11.2197 9.22363C11.0458 9.00383 10.8791 8.77801 10.7197 8.54688C10.7887 8.41319 10.8598 8.28043 10.9336 8.14941C11.0072 8.01846 11.0835 7.88896 11.1621 7.76074C11.2092 7.68261 11.2443 7.59819 11.2666 7.51074C11.2889 7.4235 11.2987 7.33312 11.2949 7.24219C11.2892 7.10542 11.2531 6.97201 11.1904 6.85156C11.1695 6.81131 11.1459 6.77235 11.1191 6.73535C11.0968 6.70479 11.0726 6.67586 11.0469 6.64844C10.9953 6.59346 10.9375 6.54466 10.874 6.50391C10.8425 6.48366 10.8093 6.46555 10.7754 6.44922C10.756 6.43991 10.7358 6.43271 10.7158 6.4248C10.5951 6.37691 10.4661 6.35343 10.3359 6.35938C10.1844 6.36631 10.0365 6.41039 9.90625 6.48828C9.77611 6.56615 9.66762 6.67547 9.58984 6.80566L9.38477 7.15332C9.18425 7.50347 8.99721 7.86104 8.8252 8.22656C8.80896 8.26156 8.79491 8.29746 8.7832 8.33398C8.74806 8.4442 8.73389 8.56064 8.74121 8.67676C8.751 8.83139 8.79947 8.98107 8.88184 9.1123C9.31667 9.79996 9.80766 10.4488 10.3486 11.0527C10.6193 11.3548 10.9021 11.6461 11.1973 11.9248C11.345 12.0643 11.4958 12.2006 11.6494 12.334C11.8026 12.467 11.9593 12.5969 12.1182 12.7236C12.1082 12.8382 12.1069 12.9531 12.1162 13.0684L11.8691 12.9707L11.8379 12.96C11.7849 12.9397 11.731 12.922 11.6777 12.9023C11.4795 12.8292 11.28 12.7606 11.0791 12.6963C10.5804 12.5366 10.0747 12.4011 9.5625 12.2959C9.3693 12.2562 9.17516 12.2213 8.98047 12.1895C8.39539 12.0939 7.80399 12.0336 7.20996 12.0098C7.05526 12.0032 6.90145 12.0358 6.7627 12.1045C6.62384 12.1733 6.50454 12.2761 6.41602 12.4033C6.24455 12.6494 6.08193 12.9017 5.92578 13.1572C5.80428 13.3562 5.68525 13.5565 5.57324 13.7607C5.23157 14.3832 4.93499 15.0299 4.68457 15.6953C4.62209 15.8614 4.56249 16.0289 4.50586 16.1973C4.45769 16.342 4.44677 16.4949 4.47168 16.6426C4.4816 16.7014 4.49728 16.7592 4.51855 16.8154C4.52929 16.8438 4.54107 16.872 4.55469 16.8994C4.56823 16.9267 4.58361 16.9529 4.59961 16.9785C4.61568 17.0042 4.63297 17.0289 4.65137 17.0527C4.68805 17.1004 4.72846 17.145 4.77344 17.1846C4.86351 17.2634 4.96947 17.324 5.08496 17.3633C5.19968 17.4017 5.32072 17.4176 5.44141 17.4092C5.47143 17.4071 5.50169 17.4035 5.53125 17.3984C5.59097 17.3884 5.64948 17.3721 5.70605 17.3506C5.73425 17.3398 5.76196 17.327 5.78906 17.3135C5.89732 17.2592 5.99407 17.1844 6.07324 17.0928L6.12891 17.0215C6.18092 16.9473 6.22151 16.8656 6.25 16.7793C6.33532 16.5247 6.42847 16.2728 6.5293 16.0244C6.73102 15.527 6.96398 15.0429 7.22559 14.5742C7.35638 14.34 7.49447 14.1098 7.63965 13.8838C7.75886 13.8933 7.87819 13.9041 7.99707 13.917C8.35408 13.9557 8.70947 14.0106 9.06348 14.0801C8.83484 14.3352 8.62574 14.6201 8.44043 14.9287C8.42246 14.9586 8.40323 14.9882 8.38574 15.0186C8.2158 15.3131 8.0756 15.6156 7.96484 15.9219C7.84792 16.2452 7.76481 16.5729 7.71191 16.8994C7.67708 17.1145 7.65523 17.3291 7.64746 17.542C7.64187 17.6951 7.6432 17.8473 7.65137 17.998C7.65954 18.1488 7.67456 18.2981 7.69629 18.4453C7.70712 18.5187 7.71923 18.5917 7.7334 18.6641C7.7618 18.8091 7.79723 18.9518 7.83887 19.0918C7.92214 19.3717 8.03107 19.6405 8.16602 19.8936C8.36841 20.2731 8.62846 20.6172 8.94238 20.9121C9.09944 21.0596 9.2702 21.1945 9.4541 21.3154C9.51523 21.3556 9.57756 21.3947 9.6416 21.4316C9.83405 21.5427 10.0331 21.6348 10.2363 21.709C10.4398 21.7833 10.6476 21.8394 10.8584 21.8779C11.0688 21.9164 11.2819 21.9374 11.4961 21.9414C11.639 21.9441 11.7824 21.939 11.9258 21.9268C12.0692 21.9145 12.2126 21.895 12.3555 21.8682C12.4981 21.8414 12.6402 21.8076 12.7812 21.7666C13.4158 21.5822 14.0281 21.2558 14.5713 20.8037C14.6317 20.7534 14.6914 20.7018 14.75 20.6484C14.8671 20.5418 14.9806 20.4292 15.0898 20.3105C15.2537 20.1325 15.4085 19.9415 15.5518 19.7373C15.6473 19.6011 15.7372 19.4589 15.8223 19.3115C15.8719 19.2255 15.9192 19.1388 15.9639 19.0518C16.0084 18.9647 16.0504 18.8772 16.0898 18.7891C16.169 18.6128 16.2382 18.4345 16.2969 18.2539C16.5343 18.5274 16.7585 18.809 16.9697 19.0986C17.0401 19.1951 17.1093 19.2923 17.1768 19.3906C16.868 19.9868 16.5143 20.5581 16.1191 21.0996C16.0402 21.2078 15.9601 21.3151 15.8779 21.4209C15.7133 21.6327 15.5417 21.8394 15.3643 22.041C15.3041 22.1095 15.2552 22.1865 15.2178 22.2686C15.1803 22.3506 15.154 22.438 15.1416 22.5283C15.1168 22.7091 15.1456 22.8932 15.2246 23.0576C15.2904 23.1944 15.3889 23.3131 15.5117 23.4023C15.6346 23.4916 15.7782 23.549 15.9287 23.5693C16.0789 23.5895 16.2322 23.5719 16.374 23.5186C16.4095 23.5052 16.4442 23.4892 16.4775 23.4717C16.5777 23.4191 16.6674 23.3484 16.7422 23.2627C16.8599 23.1294 16.9751 22.9937 17.0879 22.8564C17.5389 22.3075 17.9505 21.7279 18.3184 21.1211C18.4103 20.9694 18.4994 20.8161 18.5859 20.6611C18.7589 20.3513 18.9206 20.0349 19.0713 19.7129C19.0876 19.6777 19.1015 19.6412 19.1133 19.6045C19.125 19.5679 19.1345 19.5308 19.1416 19.4932C19.1558 19.4175 19.1611 19.3401 19.1562 19.2627C19.1489 19.1468 19.12 19.0334 19.0713 18.9287C19.055 18.8938 19.0362 18.86 19.0156 18.8271C18.1654 17.4808 17.1003 16.2818 15.8633 15.2793L15.8535 15.2695L15.6455 15.1074C15.7488 15.0561 15.8484 14.9982 15.9443 14.9336C17.2944 15.4621 18.6908 15.7774 20.0898 15.8916C20.2897 15.9079 20.4896 15.9206 20.6895 15.9287C20.8442 15.9351 20.998 15.9019 21.1367 15.833C21.241 15.7811 21.3346 15.7101 21.4121 15.624C21.4377 15.5955 21.4614 15.5649 21.4834 15.5332C21.7912 15.0915 22.0745 14.6345 22.333 14.1621C22.3983 14.0422 22.4368 13.9097 22.4453 13.7744C22.4481 13.7294 22.4472 13.684 22.4434 13.6387C22.4279 13.4572 22.359 13.2836 22.2461 13.1406C22.1662 13.0412 22.0662 12.961 21.9541 12.9023C21.9222 12.8857 21.8893 12.8713 21.8555 12.8584C21.8386 12.852 21.822 12.8443 21.8047 12.8389C21.6745 12.798 21.5374 12.787 21.4033 12.8057C21.3587 12.8118 21.3141 12.8212 21.2705 12.834C21.1828 12.86 21.1005 12.899 21.0254 12.9482C20.9074 13.0257 20.8082 13.1296 20.7354 13.2529C20.7307 13.2608 20.7251 13.2684 20.7207 13.2764C20.5758 13.5401 20.4223 13.7998 20.2607 14.0537L19.8418 14.0127C19.0055 13.9179 18.1804 13.7411 17.3789 13.4844C17.2455 13.4416 17.1125 13.3967 16.9805 13.3496C17.0291 13.0924 17.0372 12.8359 17.0039 12.5801L17.3994 12.6719C17.5322 12.699 17.6657 12.7226 17.7998 12.7422C18.0676 12.7811 18.3375 12.8048 18.6084 12.8135C18.6838 12.8164 18.7589 12.7987 18.8252 12.7627C18.8914 12.7267 18.9468 12.6731 18.9854 12.6084C19.0191 12.5497 19.0518 12.4905 19.082 12.4307C19.1728 12.2511 19.2476 12.067 19.3076 11.8818L19.5645 11.9004C19.9064 11.9206 20.249 11.92 20.5908 11.8994C20.8471 11.8839 21.1029 11.8576 21.3574 11.8193C21.5007 11.7983 21.6365 11.7437 21.7539 11.6611C21.7929 11.6336 21.8297 11.6029 21.8643 11.5693C22.0028 11.4349 22.0961 11.2603 22.1299 11.0703C22.2348 10.4977 22.2811 9.91596 22.2686 9.33398C22.267 9.27308 22.2593 9.2129 22.2461 9.1543C22.2196 9.03687 22.1708 8.92562 22.1016 8.82715C22.0843 8.80253 22.0656 8.77879 22.0459 8.75586C22.0261 8.73282 22.0046 8.7106 21.9824 8.68945C21.8939 8.60527 21.7906 8.54009 21.6787 8.49707C21.595 8.46493 21.5064 8.44513 21.416 8.43848L21.3252 8.43652C21.0811 8.44262 20.849 8.54474 20.6807 8.72168C20.6382 8.7663 20.6007 8.81484 20.5684 8.86621C20.5047 8.96776 20.4618 9.08105 20.4414 9.19922C20.4311 9.25838 20.4262 9.31897 20.4277 9.37988L20.4258 9.72168C20.4223 9.83542 20.4153 9.94903 20.4062 10.0625C20.0745 10.0778 19.7416 10.07 19.4111 10.0381C19.3352 9.65279 19.1981 9.28296 19.0059 8.94238C18.9418 8.829 18.872 8.71868 18.7959 8.6123C18.7822 8.59313 18.767 8.57455 18.7529 8.55566C18.6498 8.41727 18.538 8.28619 18.417 8.16406C18.1878 7.9329 17.9289 7.73192 17.6455 7.56836C17.192 7.30664 16.6872 7.14543 16.166 7.09473C16.101 7.0884 16.0358 7.08389 15.9707 7.08105C15.8403 7.07535 15.71 7.07683 15.5801 7.08496C15.2552 7.10544 14.9336 7.16859 14.624 7.27441L14.623 7.27344V7.27441C14.5749 7.20694 14.5282 7.13844 14.4824 7.06934C14.4366 7.00011 14.3919 6.93017 14.3486 6.85938C14.2618 6.71752 14.18 6.57258 14.1035 6.4248C14.2915 6.29539 14.4858 6.17489 14.6855 6.06445C14.8242 5.99475 14.943 5.89131 15.0312 5.76367C15.0754 5.69979 15.111 5.63086 15.1377 5.55859C15.1644 5.48643 15.1823 5.41105 15.1904 5.33398C15.1945 5.29531 15.1961 5.25642 15.1953 5.21777C15.1945 5.17947 15.1911 5.14135 15.1855 5.10352C15.1744 5.02729 15.1539 4.9525 15.124 4.88086C15.0942 4.80938 15.056 4.74208 15.0098 4.68066C14.9635 4.61901 14.9093 4.56323 14.8486 4.51465C14.812 4.48576 14.7737 4.4594 14.7334 4.43652C14.6933 4.41373 14.6513 4.39442 14.6084 4.37793C14.5219 4.34469 14.4303 4.32436 14.3369 4.31836C14.2905 4.31542 14.2442 4.31628 14.1982 4.32031Z" fill="url(#paint0_linear_1299_61)"/>
<defs>
<linearGradient id="paint0_linear_1299_61" x1="14" y1="0" x2="14" y2="28" gradientUnits="userSpaceOnUse">
<stop offset="0.55" stop-color="#0064E6"/>
<stop offset="1" stop-color="#0884BC"/>
</linearGradient>
</defs>
</svg>
